HIERARCHY
ROOT hip
{
	OFFSET 0.000000 0.000000 0.000000 
	CHANNELS 6 Xposition Yposition Zposition Zrotation Yrotation Xrotation
	JOINT abdomen
	{
		OFFSET 0.000000 0.161626 -0.005715 
		CHANNELS 3 Zrotation Xrotation Yrotation
		JOINT chest
		{
			OFFSET 0.000000 0.091440 -0.003810 
			CHANNELS 3 Zrotation Xrotation Yrotation
			JOINT neck
			{
				OFFSET 0.000000 0.173355 -0.017145 
				CHANNELS 3 Zrotation Xrotation Yrotation
				JOINT head
				{
					OFFSET -0.001905 0.055245 0.009525 
					CHANNELS 3 Zrotation Xrotation Yrotation
					JOINT leftEye
					{
						OFFSET 0.032385 0.062865 0.062865 
						CHANNELS 3 Zrotation Xrotation Yrotation
						End Site
						{
							OFFSET 0.007812 0.000000 0.000000 
						}
					}
					JOINT rightEye
					{
						OFFSET -0.028575 0.062865 0.062865 
						CHANNELS 3 Zrotation Xrotation Yrotation
						End Site
						{
							OFFSET 0.007812 0.000000 0.000000 
						}
					}
				}
			}
			JOINT rCollar
			{
				OFFSET -0.020955 0.150495 -0.038100 
				CHANNELS 3 Zrotation Xrotation Yrotation
				JOINT rShldr
				{
					OFFSET -0.068580 -0.015240 0.011430 
					CHANNELS 3 Zrotation Xrotation Yrotation
					JOINT rForeArm
					{
						OFFSET -0.220111 -0.013371 0.003810 
						CHANNELS 3 Zrotation Xrotation Yrotation
						JOINT rHand
						{
							OFFSET -0.176468 0.006041 0.055245 
							CHANNELS 3 Zrotation Xrotation Yrotation
							JOINT rThumb1
							{
								OFFSET -0.009525 -0.003812 0.026670 
								CHANNELS 3 Zrotation Xrotation Yrotation
								JOINT rThumb2
								{
									OFFSET -0.026331 -0.004098 0.026670 
									CHANNELS 3 Zrotation Xrotation Yrotation
									End Site
									{
										OFFSET -0.013927 -0.009235 0.011176 
									}
								}
							}
							JOINT rIndex1
							{
								OFFSET -0.060621 0.007330 0.043815 
								CHANNELS 3 Zrotation Xrotation Yrotation
								JOINT rIndex2
								{
									OFFSET -0.019848 -0.006908 0.012230 
									CHANNELS 3 Zrotation Xrotation Yrotation
									End Site
									{
										OFFSET -0.012697 -0.001834 0.009102 
									}
								}
							}
							JOINT rMid1
							{
								OFFSET -0.064431 0.009235 0.026670 
								CHANNELS 3 Zrotation Xrotation Yrotation
								JOINT rMid2
								{
									OFFSET -0.024232 -0.004610 0.008318 
									CHANNELS 3 Zrotation Xrotation Yrotation
									End Site
									{
										OFFSET -0.019418 -0.002570 0.006542 
									}
								}
							}
							JOINT rRing1
							{
								OFFSET -0.068970 0.004271 0.011850 
								CHANNELS 3 Zrotation Xrotation Yrotation
								JOINT rRing2
								{
									OFFSET -0.020385 -0.006405 -0.000155 
									CHANNELS 3 Zrotation Xrotation Yrotation
									End Site
									{
										OFFSET -0.018269 -0.002297 0.001313 
									}
								}
							}
							JOINT rPinky1
							{
								OFFSET -0.064625 -0.000373 -0.003581 
								CHANNELS 3 Zrotation Xrotation Yrotation
								JOINT rPinky2
								{
									OFFSET -0.014276 -0.005058 -0.005476 
									CHANNELS 3 Zrotation Xrotation Yrotation
									End Site
									{
										OFFSET -0.013221 -0.004044 -0.004744 
									}
								}
							}
						}
					}
				}
			}
			JOINT lCollar
			{
				OFFSET 0.020955 0.150495 -0.038100 
				CHANNELS 3 Zrotation Xrotation Yrotation
				JOINT lShldr
				{
					OFFSET 0.068580 -0.015240 0.011430 
					CHANNELS 3 Zrotation Xrotation Yrotation
					JOINT lForeArm
					{
						OFFSET 0.220111 -0.013371 0.003810 
						CHANNELS 3 Zrotation Xrotation Yrotation
						JOINT lHand
						{
							OFFSET 0.176468 0.006041 0.055245 
							CHANNELS 3 Zrotation Xrotation Yrotation
							JOINT lThumb1
							{
								OFFSET 0.009525 -0.003812 0.026670 
								CHANNELS 3 Zrotation Xrotation Yrotation
								JOINT lThumb2
								{
									OFFSET 0.026331 -0.004098 0.026670 
									CHANNELS 3 Zrotation Xrotation Yrotation
									End Site
									{
										OFFSET 0.013927 -0.009235 0.011176 
									}
								}
							}
							JOINT lIndex1
							{
								OFFSET 0.060621 0.007330 0.043815 
								CHANNELS 3 Zrotation Xrotation Yrotation
								JOINT lIndex2
								{
									OFFSET 0.019848 -0.006908 0.012230 
									CHANNELS 3 Zrotation Xrotation Yrotation
									End Site
									{
										OFFSET 0.012697 -0.001834 0.009102 
									}
								}
							}
							JOINT lMid1
							{
								OFFSET 0.064431 0.009235 0.026670 
								CHANNELS 3 Zrotation Xrotation Yrotation
								JOINT lMid2
								{
									OFFSET 0.024232 -0.004610 0.008318 
									CHANNELS 3 Zrotation Xrotation Yrotation
									End Site
									{
										OFFSET 0.019418 -0.002570 0.006542 
									}
								}
							}
							JOINT lRing1
							{
								OFFSET 0.068970 0.004271 0.011850 
								CHANNELS 3 Zrotation Xrotation Yrotation
								JOINT lRing2
								{
									OFFSET 0.020385 -0.006405 -0.000155 
									CHANNELS 3 Zrotation Xrotation Yrotation
									End Site
									{
										OFFSET 0.018269 -0.002297 0.001313 
									}
								}
							}
							JOINT lPinky1
							{
								OFFSET 0.064625 -0.000373 -0.003581 
								CHANNELS 3 Zrotation Xrotation Yrotation
								JOINT lPinky2
								{
									OFFSET 0.014276 -0.005058 -0.005476 
									CHANNELS 3 Zrotation Xrotation Yrotation
									End Site
									{
										OFFSET 0.013221 -0.004044 -0.004744 
									}
								}
							}
						}
					}
				}
			}
		}
	}
	JOINT rButtock
	{
		OFFSET -0.068580 0.033991 0.009525 
		CHANNELS 3 Zrotation Xrotation Yrotation
		JOINT rThigh
		{
			OFFSET 0.000000 -0.013335 -0.017145 
			CHANNELS 3 Zrotation Xrotation Yrotation
			JOINT rShin
			{
				OFFSET 0.000000 -0.287655 0.005715 
				CHANNELS 3 Zrotation Xrotation Yrotation
				JOINT rFoot
				{
					OFFSET 0.005715 -0.352425 -0.040005 
					CHANNELS 3 Zrotation Xrotation Yrotation
					End Site
					{
						OFFSET -0.008766 -0.028903 0.094555 
					}
				}
			}
		}
	}
	JOINT lButtock
	{
		OFFSET 0.068580 0.033991 0.009525 
		CHANNELS 3 Zrotation Xrotation Yrotation
		JOINT lThigh
		{
			OFFSET 0.000000 -0.013335 -0.017145 
			CHANNELS 3 Zrotation Xrotation Yrotation
			JOINT lShin
			{
				OFFSET 0.000000 -0.287655 0.005715 
				CHANNELS 3 Zrotation Xrotation Yrotation
				JOINT lFoot
				{
					OFFSET -0.005715 -0.352425 -0.040005 
					CHANNELS 3 Zrotation Xrotation Yrotation
					End Site
					{
						OFFSET 0.008766 -0.028903 0.094555 
					}
				}
			}
		}
	}
}
MOTION
Frames: 8
Frame Time: 0.008333
1.168008 0.653560 -0.064154 6.183700 -80.637100 -0.945100 -0.332191 -2.553050 1.104730 1.349530 -0.505721 0.413875 -3.647360 4.460150 -1.509300 10.112500 -5.715150 -1.529570 -0.000000 0.000000 0.000000 -0.000000 0.000000 0.000000 0.000000 0.000000 0.000000 24.570900 -3.350420 -1.799840 -3.766960 -1.630470 5.968710 0.025891 3.570640 0.498307 0.000000 0.000000 0.000000 0.000000 0.000000 0.000000 0.000000 0.000000 0.000000 7.730910 5.474880 0.417314 0.000000 0.000000 0.000000 2.905540 0.965183 0.102902 0.000000 0.000000 0.000000 10.278600 0.731801 0.025912 0.000000 0.000000 0.000000 2.221670 -0.733487 -0.208920 0.000000 0.000000 0.000000 -24.863501 -4.289750 2.682740 7.104160 -4.125590 -9.949790 -0.053633 -5.254790 0.728026 0.000000 -0.000000 -0.000000 0.000000 -0.000000 -0.000000 0.000000 -0.000000 -0.000000 -7.730910 5.474880 -0.417314 0.000000 -0.000000 -0.000000 -2.905540 0.965183 -0.102902 0.000000 -0.000000 -0.000000 -10.278600 0.731801 -0.025912 0.000000 -0.000000 -0.000000 -2.221670 -0.733487 0.208920 -0.000000 0.000000 -0.000000 0.708924 -8.240490 -0.200471 0.030214 10.714500 0.158612 -1.009440 -5.297240 -3.965010 0.000000 0.000000 0.000000 1.028840 -6.405940 -0.609241 -0.015660 7.124060 -0.089832 0.544605 -2.645930 0.721723 
1.168086 0.653521 -0.064017 6.039200 -80.648903 -0.753000 -1.818590 -5.247220 2.252790 2.446050 -1.030970 0.794484 -7.243990 9.172040 -3.145220 20.473000 -11.757400 -3.214020 -0.000000 0.000000 0.000000 -0.000000 0.000000 0.000000 0.000000 0.000000 0.000000 50.311600 -6.898410 -3.726390 -7.381270 -3.294650 12.292800 -0.014763 7.340430 1.031000 0.000000 0.000000 0.000000 0.000000 0.000000 0.000000 0.000000 0.000000 0.000000 7.730910 5.474880 0.417314 0.000000 0.000000 0.000000 2.905540 0.965183 0.102902 0.000000 0.000000 0.000000 10.278600 0.731801 0.025912 0.000000 0.000000 0.000000 2.221670 -0.733487 -0.208920 0.000000 0.000000 0.000000 -50.699699 -8.838940 5.566720 13.093100 -8.088060 -20.651199 0.039671 -10.933000 1.536420 0.000000 -0.000000 -0.000000 0.000000 -0.000000 -0.000000 0.000000 -0.000000 -0.000000 -7.730910 5.474880 -0.417314 0.000000 -0.000000 -0.000000 -2.905540 0.965183 -0.102902 0.000000 -0.000000 -0.000000 -10.278600 0.731801 -0.025912 0.000000 -0.000000 -0.000000 -2.221670 -0.733487 0.208920 -0.000000 0.000000 -0.000000 0.013834 -10.775500 -0.289435 0.034519 16.721800 0.289206 -2.515970 -11.657600 -8.361920 0.000000 0.000000 0.000000 1.554310 -11.148600 -1.286620 0.017402 16.852600 -0.273477 0.854817 -9.665150 1.655160 
1.168203 0.653464 -0.063804 5.833300 -80.706902 -0.471600 -3.045870 -7.638340 3.275430 3.421880 -1.507460 1.130140 -10.221300 13.342800 -4.639680 29.387199 -17.095400 -4.777440 -0.000000 0.000000 0.000000 -0.000000 0.000000 0.000000 0.000000 0.000000 0.000000 73.074097 -10.011300 -5.473890 -10.297300 -4.679480 17.960800 -0.111441 10.708700 1.518470 0.000000 0.000000 0.000000 0.000000 0.000000 0.000000 0.000000 0.000000 0.000000 7.730910 5.474880 0.417314 0.000000 0.000000 0.000000 2.905540 0.965183 0.102902 0.000000 0.000000 0.000000 10.278600 0.731801 0.025912 0.000000 0.000000 0.000000 2.221670 -0.733487 -0.208920 0.000000 0.000000 0.000000 -73.363800 -12.755000 8.230110 17.166300 -10.884800 -30.373501 0.252917 -15.754000 2.259830 0.000000 -0.000000 -0.000000 0.000000 -0.000000 -0.000000 0.000000 -0.000000 -0.000000 -7.730910 5.474880 -0.417314 0.000000 -0.000000 -0.000000 -2.905540 0.965183 -0.102902 0.000000 -0.000000 -0.000000 -10.278600 0.731801 -0.025912 0.000000 -0.000000 -0.000000 -2.221670 -0.733487 0.208920 -0.000000 0.000000 -0.000000 -0.605003 -13.028300 -0.360318 0.013415 22.075300 0.415516 -4.726840 -17.157101 -12.553500 0.000000 0.000000 0.000000 1.933250 -15.371000 -1.904390 0.105428 25.528700 -0.460437 1.326450 -15.917700 2.524020 
1.168297 0.653422 -0.063779 5.652000 -80.752602 -0.231900 -3.833230 -9.282570 3.959440 4.082830 -1.862310 1.353090 -12.174200 16.197800 -5.671630 35.389500 -20.722700 -5.852190 -0.000000 0.000000 0.000000 -0.000000 0.000000 0.000000 0.000000 0.000000 0.000000 88.851601 -12.075300 -6.700910 -12.168400 -5.567420 21.936399 -0.214409 13.076100 1.870640 -0.000000 -0.000000 0.000000 -0.000000 -0.000000 0.000000 -0.000000 -0.000000 0.000000 7.730910 5.474880 0.417314 -0.000000 -0.000000 0.000000 2.905540 0.965183 0.102902 -0.000000 -0.000000 0.000000 10.278600 0.731801 0.025912 -0.000000 -0.000000 0.000000 2.221670 -0.733487 -0.208920 0.000000 0.000000 0.000000 -88.991898 -15.199500 10.160100 19.355801 -12.222500 -37.137901 0.436216 -18.443100 2.686390 0.000000 -0.000000 -0.000000 0.000000 -0.000000 -0.000000 0.000000 -0.000000 -0.000000 -7.730910 5.474880 -0.417314 0.000000 -0.000000 -0.000000 -2.905540 0.965183 -0.102902 0.000000 -0.000000 -0.000000 -10.278600 0.731801 -0.025912 0.000000 -0.000000 -0.000000 -2.221670 -0.733487 0.208920 -0.000000 0.000000 -0.000000 -1.016670 -14.575800 -0.382001 -0.016598 25.794300 0.511467 -6.801360 -20.843599 -15.732800 0.000000 0.000000 0.000000 2.166430 -18.299700 -2.320040 0.206667 31.574499 -0.612858 1.753960 -20.268600 3.128630 
1.168203 0.653460 -0.063721 5.665300 -80.757698 -0.301900 -4.104970 -9.877090 4.134930 4.298760 -2.049650 1.413530 -12.965000 17.243999 -5.991600 37.706402 -21.974800 -6.132910 -0.000000 0.000000 0.000000 -0.000000 0.000000 0.000000 0.000000 0.000000 0.000000 95.063301 -12.698300 -7.142930 -12.866500 -5.894240 23.499300 -0.266540 14.094900 2.025000 -0.000000 -0.000000 -0.000000 -0.000000 -0.000000 -0.000000 -0.000000 -0.000000 -0.000000 7.730910 5.474880 0.417314 -0.000000 -0.000000 -0.000000 2.905540 0.965183 0.102902 -0.000000 -0.000000 -0.000000 10.278600 0.731801 0.025912 -0.000000 -0.000000 -0.000000 2.221670 -0.733487 -0.208920 0.000000 0.000000 0.000000 -95.179298 -15.673300 10.945700 20.005199 -12.490500 -39.537300 0.440719 -18.167999 2.646210 0.000000 0.000000 -0.000000 0.000000 0.000000 -0.000000 0.000000 0.000000 -0.000000 -7.730910 5.474880 -0.417314 0.000000 0.000000 -0.000000 -2.905540 0.965183 -0.102902 0.000000 0.000000 -0.000000 -10.278600 0.731801 -0.025912 0.000000 0.000000 -0.000000 -2.221670 -0.733487 0.208920 -0.000000 0.000000 -0.000000 -1.123180 -15.126600 -0.310544 -0.031545 27.226601 0.551486 -7.787620 -22.247700 -17.149799 0.000000 0.000000 0.000000 2.306050 -19.411301 -2.398940 0.257165 33.939400 -0.678313 1.898230 -21.969500 3.270030 
1.168055 0.653520 -0.063712 5.508600 -80.707397 -0.232700 -4.027460 -9.724150 3.943430 4.195240 -2.117250 1.358040 -12.977900 17.004499 -5.781260 37.459099 -21.539499 -5.810050 -0.000000 0.000000 0.000000 -0.000000 0.000000 0.000000 0.000000 0.000000 0.000000 94.486702 -12.299200 -7.011580 -12.792700 -5.860510 23.331301 -0.267056 14.148600 2.032830 -0.000000 -0.000000 -0.000000 -0.000000 -0.000000 -0.000000 -0.000000 -0.000000 -0.000000 7.730910 5.474880 0.417314 -0.000000 -0.000000 -0.000000 2.905540 0.965183 0.102902 -0.000000 -0.000000 -0.000000 10.278600 0.731801 0.025912 -0.000000 -0.000000 -0.000000 2.221670 -0.733487 -0.208920 0.000000 0.000000 0.000000 -94.709503 -14.760600 10.885100 19.746599 -12.242400 -38.787399 0.321836 -15.774600 2.274560 0.000000 0.000000 0.000000 0.000000 0.000000 0.000000 0.000000 0.000000 0.000000 -7.730910 5.474880 -0.417314 0.000000 0.000000 0.000000 -2.905540 0.965183 -0.102902 0.000000 0.000000 0.000000 -10.278600 0.731801 -0.025912 0.000000 0.000000 0.000000 -2.221670 -0.733487 0.208920 -0.000000 0.000000 -0.000000 -1.012140 -14.966000 -0.173485 -0.028621 27.025499 0.547488 -7.768050 -22.101400 -17.199499 0.000000 0.000000 0.000000 2.400480 -19.226700 -2.228520 0.251657 33.675301 -0.668361 1.791050 -21.780399 3.055790 
1.168055 0.653520 -0.063800 5.202000 -80.662598 0.080700 -3.795410 -9.290130 3.632980 3.961050 -2.132770 1.263370 -12.626100 16.238501 -5.339890 36.082500 -20.452400 -5.211030 -0.000000 0.000000 0.000000 -0.000000 0.000000 0.000000 0.000000 0.000000 0.000000 91.181503 -11.490400 -6.662050 -12.419700 -5.689400 22.489500 -0.242879 13.736000 1.969660 -0.000000 -0.000000 -0.000000 -0.000000 -0.000000 -0.000000 -0.000000 -0.000000 -0.000000 7.730910 5.474880 0.417314 -0.000000 -0.000000 -0.000000 2.905540 0.965183 0.102902 -0.000000 -0.000000 -0.000000 10.278600 0.731801 0.025912 -0.000000 -0.000000 -0.000000 2.221670 -0.733487 -0.208920 0.000000 0.000000 0.000000 -91.563202 -13.274400 10.483200 19.099001 -11.760400 -36.784500 0.194619 -12.510800 1.785270 0.000000 0.000000 0.000000 0.000000 0.000000 0.000000 0.000000 0.000000 0.000000 -7.730910 5.474880 -0.417314 0.000000 0.000000 0.000000 -2.905540 0.965183 -0.102902 0.000000 0.000000 0.000000 -10.278600 0.731801 -0.025912 0.000000 0.000000 0.000000 -2.221670 -0.733487 0.208920 -0.000000 0.000000 -0.000000 -0.829027 -14.535400 -0.046100 -0.018578 26.169399 0.525718 -7.327250 -21.334101 -16.675900 0.000000 0.000000 0.000000 2.461250 -18.539900 -1.987410 0.223937 32.358002 -0.628521 1.596910 -20.833300 2.713970 
1.168023 0.653502 -0.063833 5.210400 -80.645798 0.120100 -3.609340 -9.042200 3.450520 3.785240 -2.163840 1.206320 -12.330700 15.706600 -4.964300 35.032799 -19.752701 -4.653870 -0.000000 0.000000 0.000000 -0.000000 0.000000 0.000000 0.000000 0.000000 0.000000 89.216103 -10.885200 -6.446380 -12.217500 -5.602340 22.031500 -0.223880 13.355300 1.912070 -0.000000 -0.000000 -0.000000 -0.000000 -0.000000 -0.000000 -0.000000 -0.000000 -0.000000 7.730910 5.474880 0.417314 -0.000000 -0.000000 -0.000000 2.905540 0.965183 0.102902 -0.000000 -0.000000 -0.000000 10.278600 0.731801 0.025912 -0.000000 -0.000000 -0.000000 2.221670 -0.733487 -0.208920 0.000000 0.000000 0.000000 -89.741501 -12.030300 10.231600 18.615601 -11.364200 -35.416302 0.115047 -9.627470 1.366060 0.000000 0.000000 0.000000 0.000000 0.000000 0.000000 0.000000 0.000000 0.000000 -7.730910 5.474880 -0.417314 0.000000 0.000000 0.000000 -2.905540 0.965183 -0.102902 0.000000 0.000000 0.000000 -10.278600 0.731801 -0.025912 0.000000 0.000000 0.000000 -2.221670 -0.733487 0.208920 -0.000000 0.000000 -0.000000 -0.714445 -14.276400 -0.002399 -0.012464 25.636801 0.512578 -7.074920 -20.863899 -16.383301 0.000000 0.000000 0.000000 2.508470 -18.146000 -1.851430 0.208440 31.563400 -0.604803 1.467610 -20.261900 2.468350 
